<?xml version="1.0" encoding="UTF-8" standalone="no"?>
<!-- Created with Inkscape (http://www.inkscape.org/) -->

<svg
   xmlns:dc="http://purl.org/dc/elements/1.1/"
   xmlns:cc="http://creativecommons.org/ns#"
   xmlns:rdf="http://www.w3.org/1999/02/22-rdf-syntax-ns#"
   xmlns:svg="http://www.w3.org/2000/svg"
   xmlns="http://www.w3.org/2000/svg"
   xmlns:sodipodi="http://sodipodi.sourceforge.net/DTD/sodipodi-0.dtd"
   xmlns:inkscape="http://www.inkscape.org/namespaces/inkscape"
   id="svg2"
   version="1.1"
   inkscape:version="0.48.5 r10040"
   width="1000"
   height="1000"
   xml:space="preserve"
   sodipodi:docname="Q on blue.eps"><metadata
     id="metadata8"><rdf:RDF><cc:Work
         rdf:about=""><dc:format>image/svg+xml</dc:format><dc:type
           rdf:resource="http://purl.org/dc/dcmitype/StillImage" /><dc:title></dc:title></cc:Work></rdf:RDF></metadata><defs
     id="defs6" /><sodipodi:namedview
     pagecolor="#ffffff"
     bordercolor="#666666"
     borderopacity="1"
     objecttolerance="10"
     gridtolerance="10"
     guidetolerance="10"
     inkscape:pageopacity="0"
     inkscape:pageshadow="2"
     inkscape:window-width="640"
     inkscape:window-height="480"
     id="namedview4"
     showgrid="false"
     inkscape:zoom="0.236"
     inkscape:cx="500"
     inkscape:cy="500"
     inkscape:window-x="0"
     inkscape:window-y="0"
     inkscape:window-maximized="0"
     inkscape:current-layer="g10" /><g
     id="g10"
     inkscape:groupmode="layer"
     inkscape:label="ink_ext_XXXXXX"
     transform="matrix(1.25,0,0,-1.25,0,1000)"><g
       id="g12"
       transform="scale(0.1,0.1)"><path
         d="m 0,0 8000,0 0,8000 L 0,8000 0,0 z"
         style="fill:#00adef;fill-opacity:1;fill-rule:nonzero;stroke:none"
         id="path14" /><path
         d="m 5422.63,2343.94 2.15,-2.62 c -339.35,-292.03 -770.74,-483.05 -1251.1,-521.58 -1205.95,-96.75 -2262.06,802.5 -2358.77,2008.62 -96.66,1205.95 802.65,2262.02 2008.67,2358.67 1205.94,96.73 2261.9,-802.53 2358.63,-2008.57 37.62,-468.26 -75.9,-913.58 -298.45,-1289.25 l 698.73,-412.75 c 305.11,514.89 460.41,1125.05 408.97,1766.87 -132.59,1653.05 -1579.9,2885.21 -3232.9,2752.9 C 2105.63,6863.67 873.152,5416.28 1005.76,3763.46 1138.27,2110.38 2585.56,877.891 4238.72,1010.49 c 659.86,52.9 1252.43,315.96 1718.08,718 l 642.01,-740.068 c 162.73,141.418 313.4,295.818 450.79,461.248 L 5668.33,2595.55 c -74.99,-90.36 -156.95,-174.62 -245.7,-251.61"
         style="fill:#ffffff;fill-opacity:1;fill-rule:nonzero;stroke:none"
         id="path16" /></g></g></svg>